# xmcd CD database file
#
# Track frame offsets:
#	150
#	28283
#	52125
#	77570
#	102920
#	129979
#	167794
#	187937
#	206045
#	232637
#	275703
#
# Disc length: 3909 seconds
#
# Revision: 0
# Processed by: cddbd v1.5.2PL0 Copyright (c) Steve Scherf et al.
# Submitted via: CDex 1.70beta2
#
DISCID=930f430b
DTITLE=Alex Torres y su Orquesta - 25 To Life
DYEAR=2005
DGENRE=Salsa
TTITLE0=La Ropa Esta en el Baul
TTITLE1=Baila Merengue
TTITLE2=Lo Tiene Para o Mi Compay
TTITLE3=Gallina Vieja
TTITLE4=King Cash
TTITLE5=Locamente Enamorado
TTITLE6=Viernes Social
TTITLE7=Comenzemos El Vacilon - part 1
TTITLE8=Con Nuestros Amigos - part 2
TTITLE9=Suite Cuna Tropical
TTITLE10=La Ropa Esta En el Baul - Remix
EXTD=YEAR: 2005
EXTT0=
EXTT1=
EXTT2=
EXTT3=
EXTT4=
EXTT5=
EXTT6=
EXTT7=
EXTT8=
EXTT9=
EXTT10=
PLAYORDER=
